<?xml version="1.0" encoding="UTF-8" standalone="no"?><!DOCTYPE svg PUBLIC "-//W3C//DTD SVG 1.1//EN"
        "http://www.w3.org/Graphics/SVG/1.1/DTD/svg11.dtd">
<svg xmlns:serif="http://www.serif.com/" width="100%" height="100%" viewBox="0 0 303 81" version="1.1"
     xmlns="http://www.w3.org/2000/svg" xml:space="preserve"
     style="fill-rule:evenodd;clip-rule:evenodd;stroke-linejoin:round;stroke-miterlimit:2;"><rect id="Artboard1" x="0" y="0" width="303" height="80.527" style="fill:none;"/>
    <clipPath id="_clip1"><rect id="Artboard11" serif:id="Artboard1" x="0" y="0" width="303" height="80.527"/></clipPath>
    <g clip-path="url(#_clip1)"><g id="Glasses"><rect x="198.27" y="30.989" width="24.199" height="3.505" style="fill:#51697b;"/><path
            d="M197.971,44.743l13.545,-8.699l13.545,8.699l0,3.525l-13.545,-8.699l-13.545,8.699l0,-3.525Z"
            style="fill:#51697b;"/><path
            d="M251.92,30.866l4.606,-6.651l2.735,0l3.068,8.527l-2.597,1.388l-2.07,-6.29l-3.48,4.902l-2.262,-1.876Z"
            style="fill:#51697b;"/><path
            d="M159.788,29.619l5.95,6.425l1.799,-3.302l-7.197,-7.222l-3.095,0l-1.689,10.524l3.454,0.442l0.778,-6.867Z"
            style="fill:#51697b;"/></g>
        <g id="Eye"><ellipse cx="185.48" cy="42.921" rx="14.726" ry="14.351" style="fill:#ebebeb;"/>
            <g id="Iris"><circle cx="186.377" cy="43.671" r="9.327" style="fill:#51697b;"/>
                <circle cx="186.377" cy="43.671" r="5.65" style="fill:#4a82ae;"/>
                <g id="Eye-Shine" serif:id="Eye Shine"><circle cx="182.651" cy="39.944" r="1.923" style="fill:#ebebeb;"/>
                    <circle cx="186.433" cy="38.021" r="0.672" style="fill:#ebebeb;"/>
                    <circle cx="189.706" cy="49.32" r="1.343" style="fill:#ebebeb;"/></g></g></g>
        <g id="Eye1" serif:id="Eye"><ellipse cx="237.194" cy="43.671" rx="14.726" ry="14.351" style="fill:#ebebeb;"/>
            <g id="Iris1" serif:id="Iris"><circle cx="238.092" cy="44.421" r="9.327" style="fill:#51697b;"/>
                <circle cx="238.092" cy="44.421" r="5.65" style="fill:#4a82ae;"/>
                <g id="Eye-Shine1" serif:id="Eye Shine"><circle cx="234.365" cy="40.694" r="1.923" style="fill:#ebebeb;"/>
                    <circle cx="238.147" cy="38.771" r="0.672" style="fill:#ebebeb;"/>
                    <circle cx="241.42" cy="50.07" r="1.343" style="fill:#ebebeb;"/></g></g></g>
        <text x="-3.576px" y="62.206px"
              style="font-family:'TwCenMT-Regular', 'Tw Cen MT', sans-serif;font-size:96.954px;fill:#4a82ae;">S<tspan
                x="44.603px 81.678px 115.695px 157.899px 210.124px 258.491px "
                y="62.206px 62.206px 62.206px 62.206px 62.206px 62.206px ">crubby</tspan></text></g></svg>